<svg width="64" height="64" fill="none" xmlns="http://www.w3.org/2000/svg"><g clip-path="url(#a)"><rect width="64" height="64" rx="20" fill="#7156FD" fill-opacity=".2"/><path d="M34.427 31.98c0 5.512-4.532 9.98-10.122 9.98s-10.122-4.468-10.122-9.98c0-5.511 4.532-9.98 10.122-9.98s10.122 4.469 10.122 9.98Zm11.103 0c0 5.19-2.265 9.397-5.06 9.397-2.796 0-5.062-4.208-5.062-9.396 0-5.188 2.266-9.396 5.061-9.396s5.062 4.206 5.062 9.396m4.543 0c0 4.647-.797 8.417-1.78 8.417-.984 0-1.78-3.769-1.78-8.417 0-4.649.797-8.417 1.78-8.417.982 0 1.78 3.768 1.78 8.417Z" fill="#01FFC2"/></g><defs><clipPath id="a"><path fill="#fff" d="M0 0h64v64H0z"/></clipPath></defs></svg>