<svg width="64" height="64" fill="none" xmlns="http://www.w3.org/2000/svg"><g clip-path="url(#a)"><rect width="64" height="64" rx="20" fill="#7156FD" fill-opacity=".2"/><path d="M27.962 46.346a2.072 2.072 0 0 0 0-.273V32.137H25.1v-4.854h2.921v-3.635a6.79 6.79 0 0 1 .946-3.41 4.235 4.235 0 0 1 2.567-1.895A8.271 8.271 0 0 1 33.462 18h4.73v4.855H35.26a2.771 2.771 0 0 0-.544.082 1.076 1.076 0 0 0-.852 1.078v3.232h4.388l-.52 4.89h-3.915V46.37l-5.855-.023Z" fill="#01FFC2"/></g><defs><clipPath id="a"><path fill="#fff" d="M0 0h64v64H0z"/></clipPath></defs></svg>