<svg width="64" height="64" fill="none" xmlns="http://www.w3.org/2000/svg"><g clip-path="url(#a)"><rect width="64" height="64" rx="20" fill="#7156FD" fill-opacity=".2"/><path d="m17.141 32.024 7.07 2.306 2.702 8.652c.327.947.163 1.323 1.12 1.323.736 0 1.063-.35 1.473-.769.26-.266 1.807-1.834 3.534-3.586l7.354 5.669c1.353.779 2.33.375 2.668-1.312l4.829-23.73c.49-2.068-.756-3.005-2.047-2.391l-28.35 11.402c-1.935.809-1.923 1.934-.353 2.436Zm24.115-8.715c.796-.503 1.525-.232.927.322L28.537 36.474l-.531 5.912-2.685-8.588 15.935-10.489Z" fill="#01FFC2"/></g><defs><clipPath id="a"><path fill="#fff" d="M0 0h64v64H0z"/></clipPath></defs></svg>