<svg width="64" height="64" fill="none" xmlns="http://www.w3.org/2000/svg"><g clip-path="url(#a)"><rect width="64" height="64" rx="20" fill="#7156FD" fill-opacity=".2"/><g clip-path="url(#b)"><path fill-rule="evenodd" clip-rule="evenodd" d="M41.807 23.993a1.8 1.8 0 1 1-3.6 0 1.8 1.8 0 0 1 3.6 0ZM32 37a5 5 0 1 1 0-10 5 5 0 0 1 0 10Zm0-12.703a7.703 7.703 0 1 0 0 15.406 7.703 7.703 0 0 0 0-15.406Zm0-4.594c4.005 0 4.48.015 6.061.087 1.463.067 2.257.311 2.785.517.7.272 1.2.597 1.725 1.122a4.64 4.64 0 0 1 1.122 1.725c.206.528.45 1.323.517 2.785.072 1.582.087 2.056.087 6.062 0 4.005-.015 4.48-.087 6.06-.067 1.463-.311 2.257-.517 2.786-.272.7-.597 1.2-1.122 1.725a4.644 4.644 0 0 1-1.724 1.122c-.529.205-1.323.45-2.786.517-1.581.072-2.056.087-6.061.087-4.006 0-4.48-.015-6.061-.087-1.463-.067-2.257-.311-2.786-.517-.7-.272-1.2-.597-1.724-1.122a4.647 4.647 0 0 1-1.123-1.725c-.205-.529-.45-1.323-.516-2.785-.072-1.582-.088-2.056-.088-6.061 0-4.006.016-4.48.088-6.062.067-1.462.31-2.257.516-2.785.272-.7.598-1.2 1.122-1.725a4.645 4.645 0 0 1 1.725-1.122c.529-.205 1.323-.45 2.786-.517 1.581-.072 2.056-.087 6.061-.087ZM32 17c-4.074 0-4.585.017-6.184.09-1.597.073-2.688.327-3.642.698a7.349 7.349 0 0 0-2.656 1.73 7.349 7.349 0 0 0-1.73 2.656c-.371.955-.625 2.045-.698 3.642-.073 1.6-.09 2.11-.09 6.184s.017 4.585.09 6.184c.073 1.597.327 2.687.698 3.642a7.349 7.349 0 0 0 1.73 2.656 7.353 7.353 0 0 0 2.656 1.73c.955.371 2.045.625 3.642.698 1.6.073 2.11.09 6.184.09s4.585-.017 6.184-.09c1.597-.073 2.687-.327 3.642-.697a7.353 7.353 0 0 0 2.656-1.73 7.353 7.353 0 0 0 1.73-2.657c.371-.955.625-2.045.698-3.642.073-1.6.09-2.11.09-6.184s-.017-4.585-.09-6.184c-.073-1.597-.327-2.687-.697-3.642a7.353 7.353 0 0 0-1.73-2.656 7.351 7.351 0 0 0-2.657-1.73c-.955-.371-2.045-.625-3.642-.698-1.6-.073-2.11-.09-6.184-.09Z" fill="#01FFC2"/></g></g><defs><clipPath id="a"><path fill="#fff" d="M0 0h64v64H0z"/></clipPath><clipPath id="b"><path fill="#fff" transform="translate(17 17)" d="M0 0h30v30H0z"/></clipPath></defs></svg>