<svg width="64" height="64" fill="none" xmlns="http://www.w3.org/2000/svg"><g clip-path="url(#a)"><rect width="64" height="64" rx="20" fill="#7156FD" fill-opacity=".2"/><path d="m38.9 25.52-17.044-9.125a3.257 3.257 0 0 0-2.678-.195L33.7 30.72l5.2-5.2Zm6.358 3.403-4.91-2.628-5.537 5.536 5.537 5.537 4.91-2.628c2.323-1.244 2.323-4.574 0-5.817ZM17.85 17.09a3.255 3.255 0 0 0-.85 2.213V44.36c0 .876.328 1.64.849 2.212l14.74-14.74L17.85 17.09Zm1.328 30.375a3.257 3.257 0 0 0 2.678-.196L38.9 38.144l-5.2-5.201-14.522 14.522Z" fill="#01FFC2"/></g><defs><clipPath id="a"><path fill="#fff" d="M0 0h64v64H0z"/></clipPath></defs></svg>