<svg width="64" height="64" fill="none" xmlns="http://www.w3.org/2000/svg"><g clip-path="url(#a)"><rect width="64" height="64" rx="20" fill="#7156FD" fill-opacity=".2"/><path d="M47.799 21.753c-2.087.737-2.345.643-1.348-.479a7.077 7.077 0 0 0 1.7-2.663c0-.082-.364 0-.786.268a13.43 13.43 0 0 1-2.157.842l-1.325.42-1.172-.818c-.65-.442-1.35-.807-2.086-1.086a8.362 8.362 0 0 0-4.302.093 7.1 7.1 0 0 0-3.597 2.76 7.063 7.063 0 0 0-1.186 4.367l.07 1.169-1.172-.14a19.954 19.954 0 0 1-11.722-5.749l-1.63-1.612-.41 1.168A7.116 7.116 0 0 0 18.2 27.62c.985 1.04.762 1.168-.938.572-.586-.198-1.102-.35-1.172-.268a8.677 8.677 0 0 0 .88 3.306 8.053 8.053 0 0 0 3.364 3.178l1.172.56h-1.43c-1.372 0-1.419 0-1.278.55a7.443 7.443 0 0 0 1.859 2.526 7.473 7.473 0 0 0 2.736 1.54l1.524.514-1.325.794a14.101 14.101 0 0 1-6.587 1.835 6.82 6.82 0 0 0-2.005.199 18.889 18.889 0 0 0 4.689 2.173 20.8 20.8 0 0 0 16.165-1.718 21.564 21.564 0 0 0 8.205-9.604 25.18 25.18 0 0 0 1.677-7.42c0-1.167.07-1.296 1.441-2.651a15.203 15.203 0 0 0 1.724-1.905c.21-.467.187-.467-1.102-.047Z" fill="#01FFC2"/></g><defs><clipPath id="a"><path fill="#fff" d="M0 0h64v64H0z"/></clipPath></defs></svg>