<svg width="64" height="64" fill="none" xmlns="http://www.w3.org/2000/svg"><g clip-path="url(#a)"><rect width="64" height="64" rx="20" fill="#7156FD" fill-opacity=".2"/><path d="M45.322 20.321a30.673 30.673 0 0 0-7.531-2.32.115.115 0 0 0-.121.058 21.039 21.039 0 0 0-.938 1.912 28.37 28.37 0 0 0-8.459 0 19.298 19.298 0 0 0-.952-1.912.12.12 0 0 0-.121-.057 30.59 30.59 0 0 0-7.531 2.319.109.109 0 0 0-.05.042c-4.797 7.115-6.11 14.055-5.466 20.91a.126.126 0 0 0 .048.085 30.77 30.77 0 0 0 9.24 4.637.12.12 0 0 0 .129-.042 21.742 21.742 0 0 0 1.89-3.053.116.116 0 0 0-.064-.161 20.274 20.274 0 0 1-2.886-1.366.117.117 0 0 1-.012-.196c.194-.144.388-.294.573-.446a.115.115 0 0 1 .12-.016c6.055 2.745 12.61 2.745 18.594 0a.115.115 0 0 1 .121.015c.186.151.38.303.575.447a.117.117 0 0 1-.01.196c-.922.535-1.88.986-2.888 1.364a.117.117 0 0 0-.063.163 24.427 24.427 0 0 0 1.89 3.051c.028.041.08.059.129.044a30.667 30.667 0 0 0 9.253-4.637.117.117 0 0 0 .049-.084c.771-7.924-1.293-14.807-5.47-20.91a.095.095 0 0 0-.049-.043ZM26.364 37.099c-1.823 0-3.325-1.662-3.325-3.703 0-2.04 1.473-3.702 3.325-3.702 1.867 0 3.354 1.676 3.325 3.702 0 2.041-1.473 3.703-3.325 3.703Zm12.295 0c-1.823 0-3.326-1.662-3.326-3.703 0-2.04 1.473-3.702 3.326-3.702 1.866 0 3.354 1.676 3.325 3.702 0 2.041-1.459 3.703-3.325 3.703Z" fill="#01FFC2"/></g><defs><clipPath id="a"><path fill="#fff" d="M0 0h64v64H0z"/></clipPath></defs></svg>